<mxfile host="drawio-plugin" modified="2022-05-30T19:42:25.580Z" agent="5.0 (X11; Linux x86_64) AppleWebKit/537.36 (KHTML, like Gecko) Chrome/97.0.4692.45 Safari/537.36" etag="FcJucqyAO91VkkNt3R-W" version="15.5.4" type="embed"><diagram name="Page-1" id="7e0a89b8-554c-2b80-1dc8-d5c74ca68de4"><mxGraphModel dx="1033" dy="686" grid="1" gridSize="10" guides="1" tooltips="1" connect="1" arrows="1" fold="1" page="1" pageScale="1" pageWidth="1100" pageHeight="850" background="none" math="0" shadow="0"><root><mxCell id="0"/><mxCell id="1" parent="0"/><mxCell id="6T2Y-IH1VyDp2qh80cPz-68" style="edgeStyle=orthogonalEdgeStyle;rounded=0;orthogonalLoop=1;jettySize=auto;html=1;exitX=0.5;exitY=1;exitDx=0;exitDy=0;entryX=0.5;entryY=0;entryDx=0;entryDy=0;" parent="1" source="6T2Y-IH1VyDp2qh80cPz-65" target="6T2Y-IH1VyDp2qh80cPz-66" edge="1"><mxGeometry relative="1" as="geometry"/></mxCell><mxCell id="6T2Y-IH1VyDp2qh80cPz-65" value="" style="rounded=0;whiteSpace=wrap;html=1;" parent="1" vertex="1"><mxGeometry x="445.05000000000007" y="1830" width="120" height="60" as="geometry"/></mxCell><mxCell id="6T2Y-IH1VyDp2qh80cPz-12" value="" style="endArrow=none;html=1;rounded=0;exitX=1;exitY=0.5;exitDx=0;exitDy=0;" parent="1" source="yC0a1i_Iq1PuKV8hh45J-34" edge="1"><mxGeometry width="50" height="50" relative="1" as="geometry"><mxPoint x="94.97000000000003" y="900" as="sourcePoint"/><mxPoint x="274.97" y="900" as="targetPoint"/></mxGeometry></mxCell><mxCell id="6T2Y-IH1VyDp2qh80cPz-13" value="" style="rounded=0;whiteSpace=wrap;html=1;" parent="1" vertex="1"><mxGeometry x="274.97" y="870" width="190" height="60" as="geometry"/></mxCell><mxCell id="6T2Y-IH1VyDp2qh80cPz-28" value="" style="endArrow=none;html=1;rounded=0;entryX=0;entryY=0.5;entryDx=0;entryDy=0;exitX=1;exitY=0.5;exitDx=0;exitDy=0;startArrow=none;" parent="1" source="yC0a1i_Iq1PuKV8hh45J-32" target="yC0a1i_Iq1PuKV8hh45J-32" edge="1"><mxGeometry width="50" height="50" relative="1" as="geometry"><mxPoint x="794.97" y="960" as="sourcePoint"/><mxPoint x="939.9699999999998" y="900" as="targetPoint"/></mxGeometry></mxCell><mxCell id="6T2Y-IH1VyDp2qh80cPz-38" value="A3" style="text;html=1;strokeColor=none;fillColor=none;align=center;verticalAlign=middle;whiteSpace=wrap;rounded=0;" parent="1" vertex="1"><mxGeometry x="60" y="885" width="60" height="30" as="geometry"/></mxCell><mxCell id="6T2Y-IH1VyDp2qh80cPz-45" value="Anemometer" style="text;html=1;strokeColor=none;fillColor=none;align=center;verticalAlign=middle;whiteSpace=wrap;rounded=0;" parent="1" vertex="1"><mxGeometry x="339.97" y="885" width="60" height="30" as="geometry"/></mxCell><mxCell id="6T2Y-IH1VyDp2qh80cPz-49" value="&lt;h1&gt;Kann man anhand von Umgebungsdaten mithilfe einer KI vorhersagen, auf welcher Höhe man sich befindet? Und sind diese Vorhersagen genauer als herkömmliche Methoden?&lt;/h1&gt;" style="text;html=1;strokeColor=none;fillColor=none;spacing=5;spacingTop=-20;whiteSpace=wrap;overflow=hidden;rounded=0;align=center;" parent="1" vertex="1"><mxGeometry x="105" y="30" width="1055" height="80" as="geometry"/></mxCell><mxCell id="6T2Y-IH1VyDp2qh80cPz-52" value="&lt;h1&gt;&lt;span&gt;Plan&lt;br&gt;&lt;/span&gt;&lt;span style=&quot;font-size: 12px ; font-weight: normal&quot;&gt;1. Datenlogger in Form eines Arduinos erfasst auf verschiedenen Höhen Umgebungsdaten.&lt;/span&gt;&lt;br&gt;&lt;/h1&gt;&lt;p&gt;&lt;span&gt;2. Die Daten werden genutzt, um eine KI zu trainieren.&lt;br&gt;&lt;/span&gt;&lt;/p&gt;&lt;p&gt;&lt;span&gt;3. Der KI werden noch unbekannt Daten vorgelegt, um zu sehen, wie gut sie diese deuten kann.&lt;br&gt;&lt;br&gt;(4. Die Genauigkeit der KI kann mit der des Höhensensors des BME 280 verglichen werden)&lt;/span&gt;&lt;/p&gt;" style="text;html=1;strokeColor=none;fillColor=none;spacing=5;spacingTop=-20;whiteSpace=wrap;overflow=hidden;rounded=0;" parent="1" vertex="1"><mxGeometry x="30" y="140" width="530" height="170" as="geometry"/></mxCell><mxCell id="6T2Y-IH1VyDp2qh80cPz-56" value="&lt;h1&gt;Schaltskizze&lt;/h1&gt;&lt;div&gt;&lt;br&gt;&lt;/div&gt;" style="text;html=1;strokeColor=none;fillColor=none;spacing=5;spacingTop=-20;whiteSpace=wrap;overflow=hidden;rounded=0;align=center;" parent="1" vertex="1"><mxGeometry x="455" y="340" width="190" height="40" as="geometry"/></mxCell><mxCell id="6T2Y-IH1VyDp2qh80cPz-57" value="&lt;h1&gt;PAP&lt;/h1&gt;" style="text;html=1;strokeColor=none;fillColor=none;spacing=5;spacingTop=-20;whiteSpace=wrap;overflow=hidden;rounded=0;align=center;" parent="1" vertex="1"><mxGeometry x="409.97" y="1380" width="190" height="40" as="geometry"/></mxCell><mxCell id="6T2Y-IH1VyDp2qh80cPz-59" value="Daten erfassen" style="text;html=1;strokeColor=none;fillColor=none;align=center;verticalAlign=middle;whiteSpace=wrap;rounded=0;" parent="1" vertex="1"><mxGeometry x="475.05000000000007" y="1845" width="60" height="30" as="geometry"/></mxCell><mxCell id="6T2Y-IH1VyDp2qh80cPz-69" style="edgeStyle=orthogonalEdgeStyle;rounded=0;orthogonalLoop=1;jettySize=auto;html=1;exitX=0.5;exitY=1;exitDx=0;exitDy=0;entryX=0.5;entryY=0;entryDx=0;entryDy=0;" parent="1" source="6T2Y-IH1VyDp2qh80cPz-66" target="6T2Y-IH1VyDp2qh80cPz-67" edge="1"><mxGeometry relative="1" as="geometry"/></mxCell><mxCell id="6T2Y-IH1VyDp2qh80cPz-66" value="" style="rounded=0;whiteSpace=wrap;html=1;" parent="1" vertex="1"><mxGeometry x="445.05000000000007" y="1920" width="120" height="60" as="geometry"/></mxCell><mxCell id="6T2Y-IH1VyDp2qh80cPz-60" value="Daten speichern (SD-Modul?)" style="text;html=1;strokeColor=none;fillColor=none;align=center;verticalAlign=middle;whiteSpace=wrap;rounded=0;" parent="1" vertex="1"><mxGeometry x="455.05000000000007" y="1935" width="100" height="30" as="geometry"/></mxCell><mxCell id="yC0a1i_Iq1PuKV8hh45J-93" style="edgeStyle=orthogonalEdgeStyle;rounded=0;orthogonalLoop=1;jettySize=auto;html=1;exitX=0.5;exitY=1;exitDx=0;exitDy=0;entryX=1;entryY=0.5;entryDx=0;entryDy=0;" parent="1" source="6T2Y-IH1VyDp2qh80cPz-67" target="yC0a1i_Iq1PuKV8hh45J-81" edge="1"><mxGeometry relative="1" as="geometry"><Array as="points"><mxPoint x="505.06" y="2085"/><mxPoint x="825.06" y="2085"/><mxPoint x="825.06" y="1550"/></Array></mxGeometry></mxCell><mxCell id="6T2Y-IH1VyDp2qh80cPz-67" value="" style="rounded=0;whiteSpace=wrap;html=1;" parent="1" vertex="1"><mxGeometry x="445.05000000000007" y="2005" width="120" height="60" as="geometry"/></mxCell><mxCell id="6T2Y-IH1VyDp2qh80cPz-61" value="kurz warten" style="text;html=1;strokeColor=none;fillColor=none;align=center;verticalAlign=middle;whiteSpace=wrap;rounded=0;" parent="1" vertex="1"><mxGeometry x="460.05000000000007" y="2020" width="90" height="30" as="geometry"/></mxCell><mxCell id="6T2Y-IH1VyDp2qh80cPz-75" style="edgeStyle=orthogonalEdgeStyle;rounded=0;orthogonalLoop=1;jettySize=auto;html=1;" parent="1" source="6T2Y-IH1VyDp2qh80cPz-72" edge="1"><mxGeometry relative="1" as="geometry"><mxPoint x="505.06" y="1520" as="targetPoint"/></mxGeometry></mxCell><mxCell id="6T2Y-IH1VyDp2qh80cPz-72" value="" style="rounded=1;whiteSpace=wrap;html=1;" parent="1" vertex="1"><mxGeometry x="445.01000000000005" y="1440" width="120" height="40" as="geometry"/></mxCell><mxCell id="6T2Y-IH1VyDp2qh80cPz-73" value="Start" style="text;html=1;strokeColor=none;fillColor=none;align=center;verticalAlign=middle;whiteSpace=wrap;rounded=0;" parent="1" vertex="1"><mxGeometry x="475.01000000000005" y="1445" width="60" height="30" as="geometry"/></mxCell><UserObject label="(https://randomnerdtutorials.com/esp8266-bme280-arduino-ide/)" link="https://randomnerdtutorials.com/esp8266-bme280-arduino-ide/" id="yC0a1i_Iq1PuKV8hh45J-24"><mxCell style="text;html=1;strokeColor=none;fillColor=none;align=center;verticalAlign=middle;whiteSpace=wrap;rounded=0;" parent="1" vertex="1"><mxGeometry x="220" y="415" width="389.94" height="30" as="geometry"/></mxCell></UserObject><mxCell id="yC0a1i_Iq1PuKV8hh45J-33" value="GND" style="text;html=1;strokeColor=none;fillColor=none;align=center;verticalAlign=middle;whiteSpace=wrap;rounded=0;" parent="1" vertex="1"><mxGeometry x="635" y="885" width="60" height="30" as="geometry"/></mxCell><mxCell id="yC0a1i_Iq1PuKV8hh45J-34" value="" style="ellipse;whiteSpace=wrap;html=1;" parent="1" vertex="1"><mxGeometry x="120" y="890" width="20" height="20" as="geometry"/></mxCell><mxCell id="yC0a1i_Iq1PuKV8hh45J-32" value="" style="ellipse;whiteSpace=wrap;html=1;" parent="1" vertex="1"><mxGeometry x="615" y="890" width="20" height="20" as="geometry"/></mxCell><mxCell id="yC0a1i_Iq1PuKV8hh45J-35" value="" style="endArrow=none;html=1;rounded=0;entryX=0;entryY=0.5;entryDx=0;entryDy=0;exitX=1;exitY=0.5;exitDx=0;exitDy=0;" parent="1" source="6T2Y-IH1VyDp2qh80cPz-13" target="yC0a1i_Iq1PuKV8hh45J-32" edge="1"><mxGeometry width="50" height="50" relative="1" as="geometry"><mxPoint x="464.97" y="900" as="sourcePoint"/><mxPoint x="939.9699999999998" y="900" as="targetPoint"/></mxGeometry></mxCell><mxCell id="yC0a1i_Iq1PuKV8hh45J-42" value="" style="ellipse;whiteSpace=wrap;html=1;" parent="1" vertex="1"><mxGeometry x="114.97" y="1170" width="20" height="20" as="geometry"/></mxCell><mxCell id="yC0a1i_Iq1PuKV8hh45J-43" value="5V" style="text;html=1;strokeColor=none;fillColor=none;align=center;verticalAlign=middle;whiteSpace=wrap;rounded=0;" parent="1" vertex="1"><mxGeometry x="54.97" y="1165" width="60" height="30" as="geometry"/></mxCell><mxCell id="yC0a1i_Iq1PuKV8hh45J-44" value="" style="ellipse;whiteSpace=wrap;html=1;" parent="1" vertex="1"><mxGeometry x="114.97" y="1225" width="20" height="20" as="geometry"/></mxCell><mxCell id="yC0a1i_Iq1PuKV8hh45J-45" value="Port 8" style="text;html=1;strokeColor=none;fillColor=none;align=center;verticalAlign=middle;whiteSpace=wrap;rounded=0;" parent="1" vertex="1"><mxGeometry x="54.97" y="1220" width="60" height="30" as="geometry"/></mxCell><mxCell id="yC0a1i_Iq1PuKV8hh45J-47" value="" style="rounded=0;whiteSpace=wrap;html=1;" parent="1" vertex="1"><mxGeometry x="194.97" y="1170" width="70" height="20" as="geometry"/></mxCell><mxCell id="yC0a1i_Iq1PuKV8hh45J-48" value="" style="endArrow=none;html=1;rounded=0;entryX=1;entryY=0.5;entryDx=0;entryDy=0;exitX=0;exitY=0.5;exitDx=0;exitDy=0;" parent="1" source="yC0a1i_Iq1PuKV8hh45J-47" target="yC0a1i_Iq1PuKV8hh45J-42" edge="1"><mxGeometry width="50" height="50" relative="1" as="geometry"><mxPoint x="594.97" y="1095" as="sourcePoint"/><mxPoint x="644.97" y="1045" as="targetPoint"/></mxGeometry></mxCell><mxCell id="yC0a1i_Iq1PuKV8hh45J-49" value="" style="endArrow=none;html=1;rounded=0;exitX=1;exitY=0.5;exitDx=0;exitDy=0;" parent="1" source="yC0a1i_Iq1PuKV8hh45J-47" edge="1"><mxGeometry width="50" height="50" relative="1" as="geometry"><mxPoint x="594.97" y="1095" as="sourcePoint"/><mxPoint x="334.97" y="1180" as="targetPoint"/></mxGeometry></mxCell><mxCell id="yC0a1i_Iq1PuKV8hh45J-50" value="" style="whiteSpace=wrap;html=1;aspect=fixed;" parent="1" vertex="1"><mxGeometry x="334.97" y="1170" width="75" height="75" as="geometry"/></mxCell><mxCell id="yC0a1i_Iq1PuKV8hh45J-51" value="" style="endArrow=none;html=1;rounded=0;exitX=1;exitY=0.5;exitDx=0;exitDy=0;entryX=-0.013;entryY=0.867;entryDx=0;entryDy=0;entryPerimeter=0;" parent="1" source="yC0a1i_Iq1PuKV8hh45J-44" target="yC0a1i_Iq1PuKV8hh45J-50" edge="1"><mxGeometry width="50" height="50" relative="1" as="geometry"><mxPoint x="174.97" y="1244" as="sourcePoint"/><mxPoint x="324.97" y="1235" as="targetPoint"/></mxGeometry></mxCell><mxCell id="yC0a1i_Iq1PuKV8hh45J-52" value="" style="ellipse;whiteSpace=wrap;html=1;aspect=fixed;" parent="1" vertex="1"><mxGeometry x="352.47" y="1187.5" width="40" height="40" as="geometry"/></mxCell><mxCell id="yC0a1i_Iq1PuKV8hh45J-53" value="10 - 100 kOhm" style="text;html=1;strokeColor=none;fillColor=none;align=center;verticalAlign=middle;whiteSpace=wrap;rounded=0;" parent="1" vertex="1"><mxGeometry x="179.97" y="1140" width="100" height="30" as="geometry"/></mxCell><mxCell id="yC0a1i_Iq1PuKV8hh45J-55" value="Taster" style="text;html=1;strokeColor=none;fillColor=none;align=center;verticalAlign=middle;whiteSpace=wrap;rounded=0;" parent="1" vertex="1"><mxGeometry x="317.45000000000005" y="1140" width="110.03" height="30" as="geometry"/></mxCell><mxCell id="yC0a1i_Iq1PuKV8hh45J-56" value="" style="ellipse;whiteSpace=wrap;html=1;" parent="1" vertex="1"><mxGeometry x="539.94" y="1200" width="20" height="20" as="geometry"/></mxCell><mxCell id="yC0a1i_Iq1PuKV8hh45J-57" value="Port 9" style="text;html=1;strokeColor=none;fillColor=none;align=center;verticalAlign=middle;whiteSpace=wrap;rounded=0;" parent="1" vertex="1"><mxGeometry x="479.94000000000005" y="1195" width="60" height="30" as="geometry"/></mxCell><mxCell id="yC0a1i_Iq1PuKV8hh45J-60" value="" style="rounded=0;whiteSpace=wrap;html=1;" parent="1" vertex="1"><mxGeometry x="619.94" y="1200" width="70" height="20" as="geometry"/></mxCell><mxCell id="yC0a1i_Iq1PuKV8hh45J-61" value="" style="endArrow=none;html=1;rounded=0;entryX=1;entryY=0.5;entryDx=0;entryDy=0;exitX=0;exitY=0.5;exitDx=0;exitDy=0;" parent="1" source="yC0a1i_Iq1PuKV8hh45J-60" target="yC0a1i_Iq1PuKV8hh45J-56" edge="1"><mxGeometry width="50" height="50" relative="1" as="geometry"><mxPoint x="1019.94" y="1125" as="sourcePoint"/><mxPoint x="1069.94" y="1075" as="targetPoint"/></mxGeometry></mxCell><mxCell id="yC0a1i_Iq1PuKV8hh45J-62" value="" style="endArrow=none;html=1;rounded=0;exitX=1;exitY=0.5;exitDx=0;exitDy=0;" parent="1" source="yC0a1i_Iq1PuKV8hh45J-60" edge="1"><mxGeometry width="50" height="50" relative="1" as="geometry"><mxPoint x="1019.94" y="1125" as="sourcePoint"/><mxPoint x="759.94" y="1210" as="targetPoint"/></mxGeometry></mxCell><mxCell id="yC0a1i_Iq1PuKV8hh45J-66" value="150 Ohm" style="text;html=1;strokeColor=none;fillColor=none;align=center;verticalAlign=middle;whiteSpace=wrap;rounded=0;" parent="1" vertex="1"><mxGeometry x="604.94" y="1170" width="100" height="30" as="geometry"/></mxCell><mxCell id="yC0a1i_Iq1PuKV8hh45J-68" value="" style="endArrow=none;html=1;rounded=0;entryX=0;entryY=0.5;entryDx=0;entryDy=0;exitX=1;exitY=0.5;exitDx=0;exitDy=0;startArrow=none;" parent="1" source="yC0a1i_Iq1PuKV8hh45J-70" target="yC0a1i_Iq1PuKV8hh45J-70" edge="1"><mxGeometry width="50" height="50" relative="1" as="geometry"><mxPoint x="1114.94" y="1270" as="sourcePoint"/><mxPoint x="1259.9399999999998" y="1210" as="targetPoint"/></mxGeometry></mxCell><mxCell id="yC0a1i_Iq1PuKV8hh45J-69" value="GND" style="text;html=1;strokeColor=none;fillColor=none;align=center;verticalAlign=middle;whiteSpace=wrap;rounded=0;" parent="1" vertex="1"><mxGeometry x="954.97" y="1195" width="60" height="30" as="geometry"/></mxCell><mxCell id="yC0a1i_Iq1PuKV8hh45J-70" value="" style="ellipse;whiteSpace=wrap;html=1;" parent="1" vertex="1"><mxGeometry x="934.97" y="1200" width="20" height="20" as="geometry"/></mxCell><mxCell id="yC0a1i_Iq1PuKV8hh45J-71" value="" style="triangle;whiteSpace=wrap;html=1;" parent="1" vertex="1"><mxGeometry x="754.97" y="1185" width="40" height="50" as="geometry"/></mxCell><mxCell id="yC0a1i_Iq1PuKV8hh45J-72" value="" style="endArrow=none;html=1;rounded=0;" parent="1" edge="1"><mxGeometry width="50" height="50" relative="1" as="geometry"><mxPoint x="794.97" y="1235" as="sourcePoint"/><mxPoint x="794.97" y="1185" as="targetPoint"/></mxGeometry></mxCell><mxCell id="yC0a1i_Iq1PuKV8hh45J-73" value="" style="endArrow=none;html=1;rounded=0;entryX=0;entryY=0.5;entryDx=0;entryDy=0;exitX=1;exitY=0.5;exitDx=0;exitDy=0;" parent="1" source="yC0a1i_Iq1PuKV8hh45J-71" target="yC0a1i_Iq1PuKV8hh45J-70" edge="1"><mxGeometry width="50" height="50" relative="1" as="geometry"><mxPoint x="594.97" y="1115" as="sourcePoint"/><mxPoint x="644.97" y="1065" as="targetPoint"/></mxGeometry></mxCell><mxCell id="yC0a1i_Iq1PuKV8hh45J-74" value="rote LED" style="text;html=1;strokeColor=none;fillColor=none;align=center;verticalAlign=middle;whiteSpace=wrap;rounded=0;" parent="1" vertex="1"><mxGeometry x="724.97" y="1155" width="100" height="30" as="geometry"/></mxCell><mxCell id="yC0a1i_Iq1PuKV8hh45J-75" value="Tinkercad: https://www.tinkercad.com/things/9xE0dOOA9tr-cool-blad-amur/editel?sharecode=no7zeWg-feu0vWUfTIpEL2Z7wG-n8FpxN3oql_e2-zk" style="text;html=1;strokeColor=none;fillColor=none;align=center;verticalAlign=middle;whiteSpace=wrap;rounded=0;" parent="1" vertex="1"><mxGeometry x="250" y="1075" width="860" height="30" as="geometry"/></mxCell><mxCell id="yC0a1i_Iq1PuKV8hh45J-77" value="&lt;h1&gt;&lt;span style=&quot;font-weight: normal&quot;&gt;An-/Ausschalter&lt;/span&gt;&lt;/h1&gt;" style="text;html=1;strokeColor=none;fillColor=none;spacing=5;spacingTop=-20;whiteSpace=wrap;overflow=hidden;rounded=0;align=center;" parent="1" vertex="1"><mxGeometry x="89.97000000000003" y="1070" width="190" height="40" as="geometry"/></mxCell><mxCell id="yC0a1i_Iq1PuKV8hh45J-79" value="&lt;h1&gt;&lt;span style=&quot;font-weight: normal&quot;&gt;Anemometer (?)&lt;/span&gt;&lt;/h1&gt;" style="text;html=1;strokeColor=none;fillColor=none;spacing=5;spacingTop=-20;whiteSpace=wrap;overflow=hidden;rounded=0;align=center;" parent="1" vertex="1"><mxGeometry x="54.97" y="810" width="265.03" height="40" as="geometry"/></mxCell><mxCell id="yC0a1i_Iq1PuKV8hh45J-86" style="edgeStyle=orthogonalEdgeStyle;rounded=0;orthogonalLoop=1;jettySize=auto;html=1;exitX=0.5;exitY=1;exitDx=0;exitDy=0;entryX=0.5;entryY=0;entryDx=0;entryDy=0;" parent="1" source="yC0a1i_Iq1PuKV8hh45J-81" target="yC0a1i_Iq1PuKV8hh45J-83" edge="1"><mxGeometry relative="1" as="geometry"/></mxCell><mxCell id="yC0a1i_Iq1PuKV8hh45J-81" value="" style="rounded=0;whiteSpace=wrap;html=1;" parent="1" vertex="1"><mxGeometry x="445.0300000000001" y="1520" width="120" height="60" as="geometry"/></mxCell><mxCell id="yC0a1i_Iq1PuKV8hh45J-82" value="Tasterwert empfangen" style="text;html=1;strokeColor=none;fillColor=none;align=center;verticalAlign=middle;whiteSpace=wrap;rounded=0;" parent="1" vertex="1"><mxGeometry x="475.0300000000001" y="1535" width="60" height="30" as="geometry"/></mxCell><mxCell id="yC0a1i_Iq1PuKV8hh45J-90" style="edgeStyle=orthogonalEdgeStyle;rounded=0;orthogonalLoop=1;jettySize=auto;html=1;exitX=0.5;exitY=1;exitDx=0;exitDy=0;entryX=0.5;entryY=0;entryDx=0;entryDy=0;" parent="1" source="yC0a1i_Iq1PuKV8hh45J-83" target="yC0a1i_Iq1PuKV8hh45J-88" edge="1"><mxGeometry relative="1" as="geometry"/></mxCell><mxCell id="yC0a1i_Iq1PuKV8hh45J-100" style="edgeStyle=orthogonalEdgeStyle;rounded=0;orthogonalLoop=1;jettySize=auto;html=1;exitX=1;exitY=0.5;exitDx=0;exitDy=0;entryX=0;entryY=0.5;entryDx=0;entryDy=0;" parent="1" source="yC0a1i_Iq1PuKV8hh45J-83" target="yC0a1i_Iq1PuKV8hh45J-98" edge="1"><mxGeometry relative="1" as="geometry"/></mxCell><mxCell id="yC0a1i_Iq1PuKV8hh45J-83" value="" style="rhombus;whiteSpace=wrap;html=1;" parent="1" vertex="1"><mxGeometry x="465.03" y="1610" width="80" height="80" as="geometry"/></mxCell><mxCell id="yC0a1i_Iq1PuKV8hh45J-84" value="wird gedrückt?" style="text;html=1;strokeColor=none;fillColor=none;align=center;verticalAlign=middle;whiteSpace=wrap;rounded=0;" parent="1" vertex="1"><mxGeometry x="475.0300000000001" y="1635" width="60" height="30" as="geometry"/></mxCell><mxCell id="yC0a1i_Iq1PuKV8hh45J-92" style="edgeStyle=orthogonalEdgeStyle;rounded=0;orthogonalLoop=1;jettySize=auto;html=1;exitX=0.5;exitY=1;exitDx=0;exitDy=0;entryX=0.5;entryY=0;entryDx=0;entryDy=0;" parent="1" source="yC0a1i_Iq1PuKV8hh45J-88" target="6T2Y-IH1VyDp2qh80cPz-65" edge="1"><mxGeometry relative="1" as="geometry"/></mxCell><mxCell id="yC0a1i_Iq1PuKV8hh45J-96" style="edgeStyle=orthogonalEdgeStyle;rounded=0;orthogonalLoop=1;jettySize=auto;html=1;exitX=0;exitY=0.5;exitDx=0;exitDy=0;entryX=1;entryY=0.5;entryDx=0;entryDy=0;" parent="1" source="yC0a1i_Iq1PuKV8hh45J-88" target="yC0a1i_Iq1PuKV8hh45J-94" edge="1"><mxGeometry relative="1" as="geometry"/></mxCell><mxCell id="yC0a1i_Iq1PuKV8hh45J-88" value="" style="rhombus;whiteSpace=wrap;html=1;" parent="1" vertex="1"><mxGeometry x="465" y="1720" width="80" height="80" as="geometry"/></mxCell><mxCell id="yC0a1i_Iq1PuKV8hh45J-89" value="running == 1?" style="text;html=1;strokeColor=none;fillColor=none;align=center;verticalAlign=middle;whiteSpace=wrap;rounded=0;" parent="1" vertex="1"><mxGeometry x="475.0300000000001" y="1745" width="60" height="30" as="geometry"/></mxCell><mxCell id="yC0a1i_Iq1PuKV8hh45J-97" style="edgeStyle=orthogonalEdgeStyle;rounded=0;orthogonalLoop=1;jettySize=auto;html=1;exitX=0;exitY=0.5;exitDx=0;exitDy=0;entryX=0;entryY=0.5;entryDx=0;entryDy=0;" parent="1" source="yC0a1i_Iq1PuKV8hh45J-94" target="yC0a1i_Iq1PuKV8hh45J-81" edge="1"><mxGeometry relative="1" as="geometry"/></mxCell><mxCell id="yC0a1i_Iq1PuKV8hh45J-94" value="" style="rounded=0;whiteSpace=wrap;html=1;" parent="1" vertex="1"><mxGeometry x="285.06000000000006" y="1730" width="120" height="60" as="geometry"/></mxCell><mxCell id="yC0a1i_Iq1PuKV8hh45J-95" value="kurz warten" style="text;html=1;strokeColor=none;fillColor=none;align=center;verticalAlign=middle;whiteSpace=wrap;rounded=0;" parent="1" vertex="1"><mxGeometry x="300.06000000000006" y="1745" width="90" height="30" as="geometry"/></mxCell><mxCell id="yC0a1i_Iq1PuKV8hh45J-101" style="edgeStyle=orthogonalEdgeStyle;rounded=0;orthogonalLoop=1;jettySize=auto;html=1;exitX=1;exitY=0.5;exitDx=0;exitDy=0;entryX=1;entryY=0.5;entryDx=0;entryDy=0;" parent="1" source="yC0a1i_Iq1PuKV8hh45J-98" target="yC0a1i_Iq1PuKV8hh45J-88" edge="1"><mxGeometry relative="1" as="geometry"/></mxCell><mxCell id="yC0a1i_Iq1PuKV8hh45J-98" value="" style="rounded=0;whiteSpace=wrap;html=1;" parent="1" vertex="1"><mxGeometry x="585.06" y="1620" width="120" height="60" as="geometry"/></mxCell><mxCell id="yC0a1i_Iq1PuKV8hh45J-99" value="setzte running auf das Gegenteil" style="text;html=1;strokeColor=none;fillColor=none;align=center;verticalAlign=middle;whiteSpace=wrap;rounded=0;" parent="1" vertex="1"><mxGeometry x="600.06" y="1635" width="90" height="30" as="geometry"/></mxCell><mxCell id="yC0a1i_Iq1PuKV8hh45J-102" value="Nein" style="text;html=1;strokeColor=none;fillColor=none;align=center;verticalAlign=middle;whiteSpace=wrap;rounded=0;" parent="1" vertex="1"><mxGeometry x="410.03000000000003" y="1730" width="60" height="30" as="geometry"/></mxCell><mxCell id="yC0a1i_Iq1PuKV8hh45J-103" value="Ja" style="text;html=1;strokeColor=none;fillColor=none;align=center;verticalAlign=middle;whiteSpace=wrap;rounded=0;" parent="1" vertex="1"><mxGeometry x="490.05" y="1800" width="60" height="30" as="geometry"/></mxCell><mxCell id="yC0a1i_Iq1PuKV8hh45J-105" value="Ja" style="text;html=1;strokeColor=none;fillColor=none;align=center;verticalAlign=middle;whiteSpace=wrap;rounded=0;" parent="1" vertex="1"><mxGeometry x="530.03" y="1620" width="60" height="30" as="geometry"/></mxCell><mxCell id="yC0a1i_Iq1PuKV8hh45J-106" value="Nein" style="text;html=1;strokeColor=none;fillColor=none;align=center;verticalAlign=middle;whiteSpace=wrap;rounded=0;" parent="1" vertex="1"><mxGeometry x="505.01000000000005" y="1690" width="60" height="30" as="geometry"/></mxCell><mxCell id="yC0a1i_Iq1PuKV8hh45J-107" value="Teileliste:&lt;br&gt;https://docs.google.com/spreadsheets/d/1i_THPhIF8S9pF6KwKPirXauEDOjJ6AVcWq1G73zonjM/edit?usp=sharing" style="text;html=1;strokeColor=none;fillColor=none;align=center;verticalAlign=middle;whiteSpace=wrap;rounded=0;" parent="1" vertex="1"><mxGeometry x="650" y="100" width="570" height="200" as="geometry"/></mxCell><UserObject label="Tutorial: https://funduino.de/nr-50-windstaerke-messen" link="https://funduino.de/nr-50-windstaerke-messen" id="yC0a1i_Iq1PuKV8hh45J-108"><mxCell style="text;html=1;strokeColor=none;fillColor=none;align=center;verticalAlign=middle;whiteSpace=wrap;rounded=0;" parent="1" vertex="1"><mxGeometry x="89.97000000000003" y="815" width="690" height="30" as="geometry"/></mxCell></UserObject><mxCell id="2" value="" style="group" vertex="1" connectable="0" parent="1"><mxGeometry x="70" y="410" width="640" height="320" as="geometry"/></mxCell><mxCell id="yC0a1i_Iq1PuKV8hh45J-2" value="" style="rounded=0;whiteSpace=wrap;html=1;" parent="2" vertex="1"><mxGeometry y="60" width="190" height="260" as="geometry"/></mxCell><mxCell id="yC0a1i_Iq1PuKV8hh45J-3" value="" style="ellipse;whiteSpace=wrap;html=1;" parent="2" vertex="1"><mxGeometry x="150" y="80" width="20" height="20" as="geometry"/></mxCell><mxCell id="yC0a1i_Iq1PuKV8hh45J-5" value="" style="ellipse;whiteSpace=wrap;html=1;" parent="2" vertex="1"><mxGeometry x="150" y="120" width="20" height="20" as="geometry"/></mxCell><mxCell id="yC0a1i_Iq1PuKV8hh45J-6" value="" style="ellipse;whiteSpace=wrap;html=1;" parent="2" vertex="1"><mxGeometry x="150" y="160" width="20" height="20" as="geometry"/></mxCell><mxCell id="yC0a1i_Iq1PuKV8hh45J-7" value="" style="ellipse;whiteSpace=wrap;html=1;" parent="2" vertex="1"><mxGeometry x="150" y="200" width="20" height="20" as="geometry"/></mxCell><mxCell id="yC0a1i_Iq1PuKV8hh45J-8" value="" style="ellipse;whiteSpace=wrap;html=1;" parent="2" vertex="1"><mxGeometry x="150" y="240" width="20" height="20" as="geometry"/></mxCell><mxCell id="yC0a1i_Iq1PuKV8hh45J-9" value="" style="ellipse;whiteSpace=wrap;html=1;" parent="2" vertex="1"><mxGeometry x="150" y="280" width="20" height="20" as="geometry"/></mxCell><mxCell id="yC0a1i_Iq1PuKV8hh45J-10" value="BME 280" style="text;html=1;strokeColor=none;fillColor=none;align=center;verticalAlign=middle;whiteSpace=wrap;rounded=0;" parent="2" vertex="1"><mxGeometry x="10" y="175" width="60" height="30" as="geometry"/></mxCell><mxCell id="yC0a1i_Iq1PuKV8hh45J-11" value="VCC" style="text;html=1;strokeColor=none;fillColor=none;align=center;verticalAlign=middle;whiteSpace=wrap;rounded=0;" parent="2" vertex="1"><mxGeometry x="90" y="75" width="60" height="30" as="geometry"/></mxCell><mxCell id="yC0a1i_Iq1PuKV8hh45J-12" value="GND" style="text;html=1;strokeColor=none;fillColor=none;align=center;verticalAlign=middle;whiteSpace=wrap;rounded=0;" parent="2" vertex="1"><mxGeometry x="90" y="115" width="60" height="30" as="geometry"/></mxCell><mxCell id="yC0a1i_Iq1PuKV8hh45J-13" value="SDI" style="text;html=1;strokeColor=none;fillColor=none;align=center;verticalAlign=middle;whiteSpace=wrap;rounded=0;" parent="2" vertex="1"><mxGeometry x="90" y="155" width="60" height="30" as="geometry"/></mxCell><mxCell id="yC0a1i_Iq1PuKV8hh45J-14" value="SCK" style="text;html=1;strokeColor=none;fillColor=none;align=center;verticalAlign=middle;whiteSpace=wrap;rounded=0;" parent="2" vertex="1"><mxGeometry x="90" y="195" width="60" height="30" as="geometry"/></mxCell><mxCell id="yC0a1i_Iq1PuKV8hh45J-15" value="CSB" style="text;html=1;strokeColor=none;fillColor=none;align=center;verticalAlign=middle;whiteSpace=wrap;rounded=0;" parent="2" vertex="1"><mxGeometry x="90" y="235" width="60" height="30" as="geometry"/></mxCell><mxCell id="yC0a1i_Iq1PuKV8hh45J-16" value="SD0" style="text;html=1;strokeColor=none;fillColor=none;align=center;verticalAlign=middle;whiteSpace=wrap;rounded=0;" parent="2" vertex="1"><mxGeometry x="90" y="275" width="60" height="30" as="geometry"/></mxCell><mxCell id="yC0a1i_Iq1PuKV8hh45J-17" value="" style="ellipse;whiteSpace=wrap;html=1;" parent="2" vertex="1"><mxGeometry x="560" y="80" width="20" height="20" as="geometry"/></mxCell><mxCell id="yC0a1i_Iq1PuKV8hh45J-19" value="" style="endArrow=none;html=1;rounded=0;entryX=0;entryY=0.5;entryDx=0;entryDy=0;exitX=1;exitY=0.5;exitDx=0;exitDy=0;" parent="2" source="yC0a1i_Iq1PuKV8hh45J-3" target="yC0a1i_Iq1PuKV8hh45J-17" edge="1"><mxGeometry width="50" height="50" relative="1" as="geometry"><mxPoint x="500" y="330" as="sourcePoint"/><mxPoint x="550" y="280" as="targetPoint"/></mxGeometry></mxCell><mxCell id="yC0a1i_Iq1PuKV8hh45J-20" value="3.3V" style="text;html=1;strokeColor=none;fillColor=none;align=center;verticalAlign=middle;whiteSpace=wrap;rounded=0;" parent="2" vertex="1"><mxGeometry x="580" y="75" width="60" height="30" as="geometry"/></mxCell><mxCell id="yC0a1i_Iq1PuKV8hh45J-21" value="" style="ellipse;whiteSpace=wrap;html=1;" parent="2" vertex="1"><mxGeometry x="560" y="120" width="20" height="20" as="geometry"/></mxCell><mxCell id="yC0a1i_Iq1PuKV8hh45J-22" value="GND" style="text;html=1;strokeColor=none;fillColor=none;align=center;verticalAlign=middle;whiteSpace=wrap;rounded=0;" parent="2" vertex="1"><mxGeometry x="580" y="115" width="60" height="30" as="geometry"/></mxCell><mxCell id="yC0a1i_Iq1PuKV8hh45J-23" value="" style="endArrow=none;html=1;rounded=0;entryX=0;entryY=0.5;entryDx=0;entryDy=0;exitX=1;exitY=0.5;exitDx=0;exitDy=0;" parent="2" source="yC0a1i_Iq1PuKV8hh45J-5" target="yC0a1i_Iq1PuKV8hh45J-21" edge="1"><mxGeometry width="50" height="50" relative="1" as="geometry"><mxPoint x="240" y="204" as="sourcePoint"/><mxPoint x="630" y="204" as="targetPoint"/></mxGeometry></mxCell><mxCell id="yC0a1i_Iq1PuKV8hh45J-25" value="" style="ellipse;whiteSpace=wrap;html=1;" parent="2" vertex="1"><mxGeometry x="560" y="160" width="20" height="20" as="geometry"/></mxCell><mxCell id="yC0a1i_Iq1PuKV8hh45J-26" value="" style="endArrow=none;html=1;rounded=0;entryX=0;entryY=0.5;entryDx=0;entryDy=0;exitX=1;exitY=0.5;exitDx=0;exitDy=0;" parent="2" target="yC0a1i_Iq1PuKV8hh45J-25" edge="1"><mxGeometry width="50" height="50" relative="1" as="geometry"><mxPoint x="170" y="170" as="sourcePoint"/><mxPoint x="550" y="360" as="targetPoint"/></mxGeometry></mxCell><mxCell id="yC0a1i_Iq1PuKV8hh45J-27" value="A4" style="text;html=1;strokeColor=none;fillColor=none;align=center;verticalAlign=middle;whiteSpace=wrap;rounded=0;" parent="2" vertex="1"><mxGeometry x="580" y="155" width="60" height="30" as="geometry"/></mxCell><mxCell id="yC0a1i_Iq1PuKV8hh45J-28" value="" style="ellipse;whiteSpace=wrap;html=1;" parent="2" vertex="1"><mxGeometry x="560" y="200" width="20" height="20" as="geometry"/></mxCell><mxCell id="yC0a1i_Iq1PuKV8hh45J-29" value="A5" style="text;html=1;strokeColor=none;fillColor=none;align=center;verticalAlign=middle;whiteSpace=wrap;rounded=0;" parent="2" vertex="1"><mxGeometry x="580" y="195" width="60" height="30" as="geometry"/></mxCell><mxCell id="yC0a1i_Iq1PuKV8hh45J-30" value="" style="endArrow=none;html=1;rounded=0;entryX=0;entryY=0.5;entryDx=0;entryDy=0;exitX=1;exitY=0.5;exitDx=0;exitDy=0;" parent="2" target="yC0a1i_Iq1PuKV8hh45J-28" edge="1"><mxGeometry width="50" height="50" relative="1" as="geometry"><mxPoint x="170" y="210" as="sourcePoint"/><mxPoint x="630" y="284" as="targetPoint"/></mxGeometry></mxCell><mxCell id="yC0a1i_Iq1PuKV8hh45J-78" value="&lt;h1&gt;&lt;span style=&quot;font-weight: normal&quot;&gt;BME 280&lt;/span&gt;&lt;/h1&gt;" style="text;html=1;strokeColor=none;fillColor=none;spacing=5;spacingTop=-20;whiteSpace=wrap;overflow=hidden;rounded=0;align=center;" parent="2" vertex="1"><mxGeometry x="2.842170943040401e-14" width="190" height="40" as="geometry"/></mxCell><mxCell id="3" value="Text" style="text;html=1;align=center;verticalAlign=middle;resizable=0;points=[];autosize=1;strokeColor=none;fillColor=none;" vertex="1" parent="1"><mxGeometry x="580" y="700" width="40" height="20" as="geometry"/></mxCell></root></mxGraphModel></diagram></mxfile>